<?xml version="1.0" encoding="UTF-8" standalone="no"?>
<svg
   xmlns="http://www.w3.org/2000/svg"
   viewBox="0 0 100 100"
   version="1.1"
   x="0px"
   y="0px"
   width="100"
   height="100">
  <g
     id="g4"
     style="fill:none;fill-rule:evenodd;stroke:none;stroke-width:1"
     transform="translate(-0.02732874,0.4455)">
    <g
       id="g6"
       style="fill:#000000">
      <path
         d="m 50.007829,60.029 c -5.530001,0 -10.029001,-4.5 -10.029001,-10.029 0,-5.53 4.499,-10.03 10.029001,-10.03 5.53,0 10.028999,4.5 10.028999,10.03 0,5.529 -4.498999,10.029 -10.028999,10.029 l 0,0 z m 0,-25.059 c -8.286001,0 -15.029001,6.744 -15.029001,15.03 0,8.286 6.743,15.029 15.029001,15.029 8.285999,0 15.028999,-6.743 15.028999,-15.029 0,-8.286 -6.743,-15.03 -15.028999,-15.03 l 0,0 z m 28.253999,34.788 -8.83,-2.927 c -1.509,-0.503 -2.832,0.425 -3.479,1.01 -2.045999,1.832 -4.365,3.284 -6.892,4.317 -0.144,0.061 -0.283,0.132 -0.415,0.22 -0.396,0.256 -1.369999,0.964 -1.895,1.987 -0.11,0.212 -0.184999,0.442 -0.232,0.679 l -1.692,9.065 -8.181,0 -1.88,-9.112 c -0.095,-0.459 -0.317,-0.881 -0.638999,-1.22 -0.760001,-0.794 -1.902001,-1.167 -2.171,-1.233 -2.458001,-0.879 -4.795001,-2.19 -6.948,-3.897 -0.256,-0.205 -0.862001,-0.683 -2.751001,-0.857 -0.362,-0.039 -0.721,0.012 -1.058,0.132 l -8.696,3.067 -4.092,-7.083 6.953,-6.184 c 0.186,-0.166 0.347001,-0.359 0.477,-0.574 0.19,-0.312 0.788,-1.479 0.539,-3.335 -0.141,-1.042 -0.302999,-2.414 -0.302999,-3.813 0,-1.275 0.1,-2.549 0.314999,-3.921 0.113,-1.05 -0.307,-2.671 -1.686999,-3.645 l -7.002001,-5.999 4.09,-7.085 8.83,2.928 c 0.186,0.061 0.376,0.1 0.572,0.117 0.678,0.063 2.399,0.095 3.596001,-0.864 l 0.002,0 c 1.980001,-1.585 4.053001,-2.828 6.162,-3.69 0.340001,-0.139 0.645,-0.351 0.891001,-0.62 0.342,-0.373 1.476999,-1.706 1.686999,-3.156 l 1.695,-9.065 8.178,0 1.88,9.111 c 0.03,0.137 0.069,0.271 0.12,0.403 0.64,1.64 1.338,2.488 2.334001,2.834 2.497,0.872 4.783,2.095 6.796999,3.638 0.434,0.332 0.964,0.513 1.509,0.515 0.861001,0.042 2.048,-0.046 2.807,-0.315 l 8.699,-3.066 4.089,7.085 -6.965,6.199 c -0.762,0.688 -1.542999,2.08 -1.232999,3.73 0.331999,1.77 0.492999,3.362 0.492999,4.866 0,0.993 -0.061,1.985 -0.177999,2.942 -0.029,0.224 -0.024,0.454 0.007,0.678 0.069,0.457 0.386001,2.024 1.582,3.057 l 7.005,5.998 -4.09,7.083 z m 8.919001,-9.529 -8.401001,-7.197 c 0.103001,-0.994 0.156,-2.012 0.156,-3.032 0,-1.663 -0.158,-3.391 -0.486,-5.264 l 8.037001,-7.151 c 0.887,-0.788 1.096999,-2.09 0.503,-3.117 l -6.145,-10.645 c -0.603001,-1.045 -1.872,-1.504 -2.995001,-1.108 l -10.53,3.718 c -0.085,0.017 -0.259,0.034 -0.468999,0.046 -2.038001,-1.46 -4.284001,-2.658 -6.699001,-3.574 -0.005,-0.012 -0.012,-0.024 -0.017,-0.037 l -2.244,-10.874 c -0.239,-1.162 -1.262,-1.994 -2.448,-1.994 l -12.29,0 c -1.204,0 -2.236999,0.857 -2.458999,2.041 l -2.075001,11.116 c -0.022,0.07 -0.093,0.192 -0.177999,0.319 -2.237001,0.984 -4.422001,2.305 -6.502001,3.936 -0.029,0.002 -0.061,0.002 -0.093,0.005 l -10.415,-3.452 c -1.128,-0.371 -2.358,0.095 -2.951,1.123 l -6.144999,10.644 c -0.601,1.043 -0.376001,2.366 0.539,3.15 l 8.462,7.236 c -0.171001,1.279 -0.259,2.583 -0.259,3.882 0,1.697 0.185999,3.286 0.346999,4.48 0.002,0.017 0.005,0.034 0.007,0.049 l -7.865999,6.994 c -0.886,0.789 -1.096,2.09 -0.503,3.118 l 6.147999,10.644 c 0.6,1.043 1.86,1.499 2.995001,1.109 l 10.059,-3.545 c 2.39,1.838 4.982999,3.281 7.848999,4.336 l 2.048,9.929 c 0.240001,1.162 1.263,1.995 2.449,1.995 l 12.293,0 c 1.203,0 2.236001,-0.857 2.458,-2.041 l 1.948,-10.43 c 2.73,-1.157 5.257,-2.727 7.586001,-4.717 l 9.729,3.225 c 1.123,0.374 2.358,-0.095 2.950999,-1.123 l 6.145001,-10.644 c 0.601,-1.043 0.375999,-2.366 -0.539,-3.15 l 0,0 z"
      />
    </g>
  </g>
</svg>
